<!--?xml version="1.0" standalone="no"?-->
              <svg id="sw-js-blob-svg" viewBox="0 0 100 100" xmlns="http://www.w3.org/2000/svg" version="1.1">
                    <defs> 
                        <linearGradient id="sw-gradient" x1="0" x2="1" y1="1" y2="0">
                            <stop id="stop1" stop-color="rgba(46.744, 180.733, 187.906, 1)" offset="0%"></stop>
                            <stop id="stop2" stop-color="rgba(210.281, 249.698, 255, 1)" offset="100%"></stop>
                        </linearGradient>
                    </defs>
                <path fill="url(#sw-gradient)" d="M25.2,-29C33.2,-23.2,40.7,-15.9,42.8,-7.1C44.8,1.6,41.3,11.7,35.9,20.4C30.5,29.2,23.2,36.5,14.2,40.2C5.2,44,-5.4,44.2,-15.1,40.9C-24.7,37.6,-33.2,30.8,-37,22.3C-40.7,13.8,-39.8,3.5,-37.7,-6.4C-35.7,-16.3,-32.6,-25.7,-26.1,-31.8C-19.7,-37.8,-9.8,-40.5,-0.6,-39.7C8.6,-38.9,17.1,-34.8,25.2,-29Z" width="100%" height="100%" transform="translate(50 50)" stroke-width="0" style="transition: all 0.3s ease 0s;" stroke="url(#sw-gradient)"></path>
              </svg>