<svg width="234" height="44" viewBox="0 0 234 44" fill="none" xmlns="http://www.w3.org/2000/svg">
<path d="M57.3977 9.86043C56.7163 10.5276 55.893 10.8612 54.9278 10.8612C53.9341 10.8612 53.0895 10.5276 52.3939 9.86043C51.6984 9.19325 51.3506 8.37703 51.3506 7.41176C51.3506 6.47487 51.6984 5.67285 52.3939 5.00567C53.0895 4.3385 53.9341 4.00491 54.9278 4.00491C55.893 4.00491 56.7163 4.3385 57.3977 5.00567C58.0791 5.67285 58.4198 6.47487 58.4198 7.41176C58.4198 8.37703 58.0791 9.19325 57.3977 9.86043ZM51.7338 13.3737H58.1217V36.7532H51.7338V13.3737ZM84.035 15.503C85.4971 17.2348 86.2281 19.7048 86.2281 22.9129V36.7532H79.7125V22.9129C79.7125 19.7616 78.2079 18.1859 75.1985 18.1859C74.0345 18.1859 72.984 18.6472 72.0471 19.5699C71.1103 20.4926 70.6702 22.0896 70.727 24.3608V36.7532H64.3817V13.3311H70.727V15.4178C71.4935 14.6513 72.4588 14.0409 73.6228 13.5867C74.7868 13.1324 75.9082 12.9053 76.9871 12.9053C80.2236 12.9053 82.5729 13.7712 84.035 15.503ZM100.324 28.4064C100.324 29.4001 100.494 30.2305 100.835 30.8977C101.176 31.5649 101.971 31.8984 103.22 31.8984C103.788 31.8984 104.327 31.8701 104.838 31.8133V37.1791C103.816 37.2926 102.865 37.3494 101.985 37.3494C100.168 37.3494 98.6986 37.2003 97.5772 36.9022C96.4558 36.6041 95.5828 36.0292 94.9582 35.1775C94.3336 34.3258 94.0213 33.105 94.0213 31.5152V18.5266H91.1681V12.9479H94.0213V6.6878H100.324V12.9479H105.008V18.5266H100.324V28.4064ZM121.063 19.4422C119.842 19.7403 118.721 20.4429 117.699 21.5502C116.677 22.6574 116.166 24.2756 116.166 26.4049V36.7532H109.821V13.3311H116.166V16.4399C117.216 15.0488 118.501 14.1048 120.02 13.608C121.539 13.1111 122.923 12.8769 124.172 12.9053V19.1228C123.32 19.0376 122.284 19.1441 121.063 19.4422ZM145.294 34.411C144.755 35.1491 143.825 35.8092 142.505 36.3912C141.185 36.9732 139.744 37.2642 138.183 37.2642C135.769 37.2642 133.676 36.7248 131.901 35.646C130.127 34.5671 128.771 33.0979 127.834 31.2384C126.897 29.3788 126.429 27.3134 126.429 25.0422C126.429 22.7709 126.897 20.7055 127.834 18.846C128.771 16.9864 130.127 15.5172 131.901 14.4384C133.676 13.3595 135.769 12.8201 138.183 12.8201C139.801 12.8201 141.227 13.0969 142.462 13.6505C143.697 14.2042 144.641 14.9068 145.294 15.7585V13.3311H151.597V36.7532H145.294V34.411ZM143.804 20.2513C142.64 19.0163 141.078 18.3988 139.119 18.3988C137.132 18.3988 135.563 19.0163 134.414 20.2513C133.264 21.4863 132.689 23.0832 132.689 25.0422C132.689 26.9443 133.278 28.52 134.456 29.7692C135.634 31.0183 137.189 31.6429 139.119 31.6429C141.107 31.6429 142.675 31.0538 143.825 29.8756C144.975 28.6974 145.55 27.0863 145.55 25.0422C145.55 23.0832 144.968 21.4863 143.804 20.2513ZM157.942 4.55853H164.33V36.7532H157.942V4.55853ZM176.382 9.86043C175.7 10.5276 174.877 10.8612 173.912 10.8612C172.918 10.8612 172.074 10.5276 171.378 9.86043C170.682 9.19325 170.335 8.37703 170.335 7.41176C170.335 6.47487 170.682 5.67285 171.378 5.00567C172.074 4.3385 172.918 4.00491 173.912 4.00491C174.877 4.00491 175.7 4.3385 176.382 5.00567C177.063 5.67285 177.404 6.47487 177.404 7.41176C177.404 8.37703 177.063 9.19325 176.382 9.86043ZM170.718 13.3737H177.106V36.7532H170.718V13.3737ZM203.019 15.503C204.481 17.2348 205.212 19.7048 205.212 22.9129V36.7532H198.697V22.9129C198.697 19.7616 197.192 18.1859 194.183 18.1859C193.019 18.1859 191.968 18.6472 191.031 19.5699C190.094 20.4926 189.654 22.0896 189.711 24.3608V36.7532H183.366V13.3311H189.711V15.4178C190.478 14.6513 191.443 14.0409 192.607 13.5867C193.771 13.1324 194.892 12.9053 195.971 12.9053C199.208 12.9053 201.557 13.7712 203.019 15.503ZM217.86 4.55853V23.2962L225.824 13.4589H233.617L224.205 24.3608L234 36.7532H226.292L220.16 29.0878L217.86 31.7281V36.7532H211.472V4.55853H217.86Z" fill="#232931"/>
<path fill-rule="evenodd" clip-rule="evenodd" d="M15.6552 8.24428L5.38853 17.0443L6.3448 18.1588L16.6115 9.35878L15.6552 8.24428ZM6.49733 23.0912L5.23893 23.8452L14.0389 38.5118L15.2973 37.7579L6.49733 23.0912ZM34.9683 34.5079L19.5683 39.6412L20.0317 41.0302L35.4317 35.8968L34.9683 34.5079ZM25.7723 4.26358L25.5611 5.71575L36.5611 7.32904L36.7723 5.87706L25.7723 4.26358ZM40.9963 11.5765C40.8142 11.5831 40.6412 11.657 40.5108 11.7842C40.3804 11.9113 40.302 12.0826 40.2908 12.2644L39.9696 16.4458C39.9574 16.5442 39.9653 16.6441 39.9929 16.7394C40.0204 16.8347 40.067 16.9235 40.1298 17.0002C40.1926 17.077 40.2704 17.1402 40.3583 17.1861C40.4463 17.2319 40.5427 17.2596 40.6416 17.2672C40.7405 17.2747 40.8399 17.2621 40.9338 17.2301C41.0277 17.1981 41.1142 17.1473 41.1879 17.081C41.2617 17.0146 41.3212 16.934 41.3628 16.8439C41.4045 16.7539 41.4275 16.6565 41.4304 16.5573L41.7531 12.3757C41.7625 12.2719 41.7497 12.1674 41.7155 12.0689C41.6814 11.9704 41.6265 11.8802 41.5548 11.8046C41.483 11.7289 41.396 11.6694 41.2994 11.63C41.2028 11.5907 41.1005 11.5725 40.9963 11.5765ZM40.304 20.526C40.123 20.5336 39.9512 20.608 39.8218 20.7348C39.6923 20.8615 39.6144 21.0316 39.6029 21.2124L39.2363 25.9791L38.8696 30.7458C38.8574 30.8442 38.8653 30.9441 38.8929 31.0394C38.9204 31.1347 38.967 31.2235 39.0298 31.3002C39.0926 31.377 39.1704 31.4402 39.2583 31.4861C39.3463 31.5319 39.4427 31.5596 39.5416 31.5672C39.6405 31.5747 39.7399 31.5621 39.8338 31.5301C39.9277 31.4981 40.0142 31.4473 40.0879 31.381C40.1617 31.3146 40.2212 31.234 40.2628 31.1439C40.3045 31.0539 40.3275 30.9565 40.3304 30.8573L40.6971 26.0906L41.0637 21.324C41.0732 21.22 41.0604 21.1152 41.0261 21.0166C40.9918 20.9179 40.9369 20.8278 40.865 20.7521C40.7931 20.6765 40.7058 20.617 40.6091 20.5777C40.5123 20.5385 40.4083 20.5218 40.304 20.526Z" fill="#2B4255"/>
<path d="M37.4 29.3333C36.4285 29.3364 35.4977 29.7238 34.8107 30.4108C34.1237 31.0977 33.7364 32.0285 33.7333 33C33.7333 35.0167 35.3833 36.6667 37.4 36.6667C39.4167 36.6667 41.0667 35.0167 41.0667 33C41.0667 30.9833 39.4167 29.3333 37.4 29.3333ZM37.4 30.8C38.6232 30.8 39.6 31.7768 39.6 33C39.6 34.2247 38.6232 35.2 37.4 35.2C36.1768 35.2 35.2 34.2247 35.2 33C35.2 31.7768 36.1768 30.8 37.4 30.8Z" fill="#F05542"/>
<path fill-rule="evenodd" clip-rule="evenodd" d="M37.6141 11.2157L27.3475 21.4824L28.3859 22.5192L38.6525 12.2525L37.6141 11.2157ZM28.2451 25.7737L27.4883 27.0307L34.8216 31.4307L35.5784 30.1737L28.2451 25.7737ZM7.39933 21.2711L7.26733 22.7305L23.4007 24.1971L23.5327 22.7364L7.39933 21.2711Z" fill="#2B4255"/>
<path d="M25.6667 20.5333C24.6952 20.5364 23.7643 20.9238 23.0774 21.6108C22.3904 22.2977 22.0031 23.2285 22 24.2C22 26.2167 23.65 27.8667 25.6667 27.8667C27.6833 27.8667 29.3333 26.2167 29.3333 24.2C29.3333 22.1833 27.6833 20.5333 25.6667 20.5333ZM25.6667 22C26.8899 22 27.8667 22.9768 27.8667 24.2C27.8667 25.4247 26.8899 26.4 25.6667 26.4C24.4435 26.4 23.4667 25.4247 23.4667 24.2C23.4667 22.9768 24.4435 22 25.6667 22ZM20.5333 0C17.3023 0 14.6667 2.6356 14.6667 5.86667C14.6667 9.09773 17.3023 11.7333 20.5333 11.7333C23.7644 11.7333 26.4 9.09773 26.4 5.86667C26.4 2.6356 23.7644 0 20.5333 0ZM20.5333 1.46667C22.9724 1.46667 24.9333 3.42907 24.9333 5.86667C24.9333 8.30573 22.9724 10.2667 20.5333 10.2667C18.0943 10.2667 16.1333 8.30573 16.1333 5.86667C16.1333 3.42907 18.0943 1.46667 20.5333 1.46667ZM16.8667 36.6667C15.8952 36.6698 14.9643 37.0571 14.2774 37.7441C13.5904 38.4311 13.2031 39.3618 13.2 40.3333C13.2 42.35 14.85 44 16.8667 44C18.8833 44 20.5333 42.35 20.5333 40.3333C20.5333 38.3167 18.8833 36.6667 16.8667 36.6667ZM16.8667 38.1333C18.0899 38.1333 19.0667 39.1101 19.0667 40.3333C19.0667 41.558 18.0899 42.5333 16.8667 42.5333C15.6435 42.5333 14.6667 41.558 14.6667 40.3333C14.6667 39.1101 15.6435 38.1333 16.8667 38.1333ZM39.6 4.4C37.18 4.4 35.2 6.38 35.2 8.8C35.2 11.2215 37.18 13.2 39.6 13.2C42.02 13.2 44 11.2215 44 8.8C44 6.38 42.02 4.4 39.6 4.4ZM39.6 5.86667C41.228 5.86667 42.5333 7.172 42.5333 8.8C42.5333 10.428 41.228 11.7333 39.6 11.7333C37.972 11.7333 36.6667 10.428 36.6667 8.8C36.6667 7.172 37.972 5.86667 39.6 5.86667ZM4.4 16.1333C1.98 16.1333 0 18.1133 0 20.5333C0 22.9548 1.98 24.9333 4.4 24.9333C6.82 24.9333 8.8 22.9548 8.8 20.5333C8.8 18.1133 6.82 16.1333 4.4 16.1333ZM4.4 17.6C6.028 17.6 7.33333 18.9053 7.33333 20.5333C7.33333 22.1613 6.028 23.4667 4.4 23.4667C2.772 23.4667 1.46667 22.1613 1.46667 20.5333C1.46667 18.9053 2.772 17.6 4.4 17.6Z" fill="#F05542"/>
</svg>
